<svg width="23" height="22" viewBox="0 0 23 22" fill="none" xmlns="http://www.w3.org/2000/svg">
<path d="M17.0588 12.2526L17.0588 2.25564C17.0588 1.92422 17.189 1.60637 17.4206 1.37202C17.6523 1.13767 17.9665 1.00602 18.2941 1.00602H20.7647C21.0923 1.00602 21.4065 1.13767 21.6382 1.37202C21.8699 1.60637 22 1.92422 22 2.25564L22 11.003C22 11.3344 21.8699 11.6523 21.6382 11.8866C21.4065 12.121 21.0923 12.2526 20.7647 12.2526H17.0588ZM17.0588 12.2526C15.7483 12.2526 14.4915 12.7793 13.5649 13.7167C12.6382 14.6541 12.1176 15.9254 12.1176 17.2511V18.5008C12.1176 19.1636 11.8574 19.7993 11.394 20.268C10.9307 20.7367 10.3023 21 9.64706 21C8.99182 21 8.36341 20.7367 7.90009 20.268C7.43676 19.7993 7.17647 19.1636 7.17647 18.5008L7.17647 12.2526H3.47059C2.81535 12.2526 2.18694 11.9893 1.72362 11.5206C1.26029 11.0519 1 10.4162 1 9.75338L2.23529 3.50527C2.41295 2.73865 2.74995 2.08039 3.19555 1.62962C3.64115 1.17886 4.1712 0.960002 4.70588 1.00602L13.3529 1.00602C14.3358 1.00602 15.2784 1.40099 15.9734 2.10404C16.6684 2.80709 17.0588 3.76063 17.0588 4.75489" stroke="white" stroke-linecap="round" stroke-linejoin="round"/>
</svg>
