<svg width="23" height="22" viewBox="0 0 23 22" fill="none" xmlns="http://www.w3.org/2000/svg">
<path d="M5.94118 9.74737V19.7444C5.94118 20.0758 5.81103 20.3936 5.57937 20.628C5.3477 20.8623 5.0335 20.994 4.70588 20.994H2.23529C1.90767 20.994 1.59347 20.8623 1.36181 20.628C1.13015 20.3936 1 20.0758 1 19.7444V10.997C1 10.6656 1.13015 10.3477 1.36181 10.1134C1.59347 9.87902 1.90767 9.74737 2.23529 9.74737H5.94118ZM5.94118 9.74737C7.25166 9.74737 8.50847 9.22074 9.43512 8.28334C10.3618 7.34594 10.8824 6.07456 10.8824 4.74887V3.49925C10.8824 2.83641 11.1426 2.20071 11.606 1.73201C12.0693 1.26331 12.6977 1 13.3529 1C14.0082 1 14.6366 1.26331 15.0999 1.73201C15.5632 2.20071 15.8235 2.83641 15.8235 3.49925V9.74737H19.5294C20.1847 9.74737 20.8131 10.0107 21.2764 10.4794C21.7397 10.9481 22 11.5838 22 12.2466L20.7647 18.4947C20.5871 19.2613 20.25 19.9196 19.8045 20.3704C19.3589 20.8211 18.8288 21.04 18.2941 20.994H9.64706C8.6642 20.994 7.72159 20.599 7.0266 19.896C6.33162 19.1929 5.94118 18.2394 5.94118 17.2451" stroke="white" stroke-linecap="round" stroke-linejoin="round"/>
</svg>
